<svg aria-hidden="true" style="width:0;height:0;position:absolute;overflow:hidden" xmlns="http://www.w3.org/2000/svg"><defs><symbol id="icon-phone" viewBox="0 0 32 32"><path d="M22 20c-2 2-2 4-4 4s-4-2-6-4-4-4-4-6 2-2 4-4-4-8-6-8-6 6-6 6c0 4 4.109 12.109 8 16s12 8 16 8c0 0 6-4 6-6s-6-8-8-6z"/></symbol><symbol id="icon-menu" viewBox="0 0 32 32"><path d="M0 2h32v4H0zm6 6h20v4H6zm0 12h20v4H6zm-6-6h32v4H0zm0 12h32v4H0z"/></symbol><symbol id="icon-alarm" viewBox="0 0 32 32"><path d="M16 4C8.268 4 2 10.268 2 18s6.268 14 14 14 14-6.268 14-14S23.732 4 16 4zm0 25.25C9.787 29.25 4.75 24.213 4.75 18S9.787 6.75 16 6.75 27.25 11.787 27.25 18 22.213 29.25 16 29.25zM29.212 8.974a6 6 0 0 0-9.959-6.643 16.011 16.011 0 0 1 9.96 6.643zM12.748 2.331a6 6 0 0 0-9.96 6.643 16.008 16.008 0 0 1 9.96-6.643z"/><path d="M16 18v-8h-2v10h8v-2z"/></symbol><symbol id="icon-cross" viewBox="0 0 32 32"><path d="M32 3.223 28.777 0 16 12.777 3.223 0 0 3.223 12.777 16 0 28.777 3.223 32 16 19.223 28.777 32 32 28.777 19.223 16 32 3.223z"/></symbol><symbol id="icon-twitter" viewBox="0 0 32 32"><path d="M32 6.078c-1.1.494-2.376.858-3.712 1.029l-.068.007a6.56 6.56 0 0 0 2.873-3.58l.013-.046a12.858 12.858 0 0 1-4.076 1.574l-.084.014A6.56 6.56 0 0 0 15.598 9.56c0 .52.044 1.02.152 1.496A18.554 18.554 0 0 1 2.255 4.228l-.027-.034a6.496 6.496 0 0 0-.895 3.311 6.562 6.562 0 0 0 2.888 5.442l.023.015a6.465 6.465 0 0 1-2.997-.823l.033.017v.072a6.592 6.592 0 0 0 5.213 6.438l.043.008a6.408 6.408 0 0 1-1.669.216h-.054.003a5.842 5.842 0 0 1-1.279-.118l.037.006c.873 2.624 3.273 4.496 6.121 4.57h.009a13.098 13.098 0 0 1-8.12 2.798h-.015.001c-.538 0-1.054-.024-1.57-.09C2.826 27.902 6.287 29 10.004 29h.063-.003c12.072 0 18.672-10 18.672-18.668 0-.29-.01-.57-.024-.848a13.186 13.186 0 0 0 3.258-3.359l.03-.047z"/></symbol><symbol id="icon-facebook" viewBox="0 0 32 32"><path d="M21.33 5.314h2.92V.226A36.551 36.551 0 0 0 20.125 0h-.138.007C15.782 0 12.9 2.65 12.9 7.52V12H8.25v5.688h4.648V32h5.698V17.69h4.46l.708-5.69h-5.17V8.08c.002-1.644.444-2.768 2.736-2.768z"/></symbol><symbol id="icon-instagram" viewBox="0 0 32 32"><path d="M31.968 9.408c-.074-1.7-.35-2.87-.744-3.882a7.844 7.844 0 0 0-1.849-2.839l-.001-.001A7.898 7.898 0 0 0 26.596.862l-.054-.018c-1.02-.394-2.18-.67-3.88-.744C20.946.02 20.4 0 16.06 0c-4.346 0-4.89.02-6.596.094-1.7.074-2.868.35-3.88.744a7.844 7.844 0 0 0-2.839 1.849l-.001.001A7.89 7.89 0 0 0 .918 5.466L.9 5.52C.506 6.54.232 7.7.156 9.4c-.08 1.714-.1 2.26-.1 6.602 0 4.346.02 4.89.094 6.596.074 1.7.35 2.87.744 3.882a7.886 7.886 0 0 0 1.85 2.838c.8.812 1.77 1.444 2.832 1.844 1.02.394 2.18.67 3.882.744 1.706.076 2.25.094 6.596.094 4.344 0 4.888-.02 6.594-.094 1.7-.074 2.87-.35 3.882-.744a8.233 8.233 0 0 0 4.663-4.627l.019-.055c.394-1.02.67-2.18.744-3.882.076-1.706.094-2.25.094-6.596 0-4.344-.006-4.888-.08-6.594zm-2.88 13.064c-.07 1.564-.332 2.408-.552 2.97a5.34 5.34 0 0 1-3.002 3.027l-.036.013c-.562.218-1.412.48-2.968.548-1.688.076-2.194.094-6.464.094s-4.782-.02-6.464-.094c-1.564-.068-2.408-.33-2.97-.55a4.947 4.947 0 0 1-1.837-1.193l-.001-.001a5.001 5.001 0 0 1-1.183-1.804l-.011-.034c-.22-.562-.48-1.412-.55-2.968-.074-1.688-.094-2.196-.094-6.464 0-4.27.02-4.782.094-6.464.07-1.564.332-2.408.55-2.97a4.888 4.888 0 0 1 1.2-1.838A4.96 4.96 0 0 1 6.64 3.55c.56-.22 1.412-.48 2.968-.55 1.688-.074 2.194-.094 6.464-.094 4.276 0 4.78.02 6.464.094 1.562.07 2.406.332 2.968.55a4.929 4.929 0 0 1 1.84 1.194 4.98 4.98 0 0 1 1.192 1.84c.22.56.482 1.41.55 2.968.076 1.688.094 2.194.094 6.464s-.018 4.77-.092 6.456z"/><path d="M16.06 7.782a8.222 8.222 0 0 0-.01 16.44h.009a8.222 8.222 0 0 0 .01-16.44h-.009zm0 13.554a5.334 5.334 0 1 1 0-10.668 5.334 5.334 0 1 1 0 10.668zM26.524 7.458a1.92 1.92 0 0 1-3.84 0 1.92 1.92 0 0 1 3.84 0z"/></symbol><symbol id="icon-email" viewBox="0 0 24 32"><path d="M20 8H4c-1.1 0-1.99.9-1.99 2L2 22c0 1.1.9 2 2 2h16c1.1 0 2-.9 2-2V10c0-1.1-.9-2-2-2zm-.4 4.25-7.07 4.42c-.32.2-.74.2-1.06 0L4.4 12.25a.85.85 0 1 1 .9-1.44L12 15l6.7-4.19a.85.85 0 1 1 .9 1.44z"/></symbol></defs></svg>